HIERARCHY
ROOT root
{
	OFFSET 0.000000 0.000000 0.000000
	CHANNELS 6 Xposition Yposition Zposition Zrotation Yrotation Xrotation
	JOINT lhip
	{
		OFFSET 0.058581 -0.082280 -0.017664
		CHANNELS 3 Zrotation Yrotation Xrotation
		JOINT lknee
		{
			OFFSET 0.043451 -0.386469 0.008037
			CHANNELS 3 Zrotation Yrotation Xrotation
			JOINT lankle
			{
				OFFSET -0.014790 -0.426874 -0.037428
				CHANNELS 3 Zrotation Yrotation Xrotation
				JOINT ltoe
				{
					OFFSET 0.041054 -0.060286 0.122042
					CHANNELS 3 Zrotation Yrotation Xrotation
					End Site
					{
						OFFSET 0.000000 0.000000 0.000000
					}
				}
			}
		}
	}
	JOINT rhip
	{
		OFFSET -0.060310 -0.090513 -0.013543
		CHANNELS 3 Zrotation Yrotation Xrotation
		JOINT rknee
		{
			OFFSET -0.043257 -0.383688 -0.004843
			CHANNELS 3 Zrotation Yrotation Xrotation
			JOINT rankle
			{
				OFFSET 0.019056 -0.420046 -0.034562
				CHANNELS 3 Zrotation Yrotation Xrotation
				JOINT rtoe
				{
					OFFSET -0.034840 -0.062106 0.130323
					CHANNELS 3 Zrotation Yrotation Xrotation
					End Site
					{
						OFFSET 0.000000 0.000000 0.000000
					}
				}
			}
		}
	}
	JOINT lowerback
	{
		OFFSET 0.004439 0.124404 -0.038385
		CHANNELS 3 Zrotation Yrotation Xrotation
		JOINT upperback
		{
			OFFSET 0.004488 0.137956 0.026820
			CHANNELS 3 Zrotation Yrotation Xrotation
			JOINT chest
			{
				OFFSET -0.002265 0.056032 0.002855
				CHANNELS 3 Zrotation Yrotation Xrotation
				JOINT lowerneck
				{
					OFFSET -0.013390 0.211636 -0.033468
					CHANNELS 3 Zrotation Yrotation Xrotation
					JOINT upperneck
					{
						OFFSET 0.010113 0.088937 0.050410
						CHANNELS 3 Zrotation Yrotation Xrotation
						End Site
						{
							OFFSET 0.000000 0.000000 0.000000
						}
					}
				}
				JOINT lclavicle
				{
					OFFSET 0.071702 0.114000 -0.018898
					CHANNELS 3 Zrotation Yrotation Xrotation
					JOINT lshoulder
					{
						OFFSET 0.122921 0.045205 -0.019046
						CHANNELS 3 Zrotation Yrotation Xrotation
						JOINT lelbow
						{
							OFFSET 0.255332 -0.015649 -0.022946
							CHANNELS 3 Zrotation Yrotation Xrotation
							JOINT lwrist
							{
								OFFSET 0.265709 0.012698 -0.007375
								CHANNELS 3 Zrotation Yrotation Xrotation
								End Site
								{
									OFFSET 0.000000 0.000000 0.000000
								}
							}
						}
					}
				}
				JOINT rclavicle
				{
					OFFSET -0.082954 0.112472 -0.023707
					CHANNELS 3 Zrotation Yrotation Xrotation
					JOINT rshoulder
					{
						OFFSET -0.113228 0.046853 -0.008472
						CHANNELS 3 Zrotation Yrotation Xrotation
						JOINT relbow
						{
							OFFSET -0.260127 -0.014369 -0.031269
							CHANNELS 3 Zrotation Yrotation Xrotation
							JOINT rwrist
							{
								OFFSET -0.269108 0.006794 -0.006027
								CHANNELS 3 Zrotation Yrotation Xrotation
								End Site
								{
									OFFSET 0.000000 0.000000 0.000000
								}
							}
						}
					}
				}
			}
		}
	}
}
MOTION
Frames: 10
Frame Time: 0.033333
-0.622479 0.200168 1.176671 -96.161061 -0.276794 78.553721 2.882129 -3.318660 -23.213490 -6.646956 7.295449 60.420135 1.654000 7.071864 3.879690 0.000000 -0.000000 0.000000 1.068767 -4.819695 9.097914 2.454480 2.314008 17.045895 -1.061719 -2.397107 -14.054039 0.000000 -0.000000 0.000000 1.230726 5.720881 17.132276 2.205133 -1.267098 0.018971 -0.469051 1.090995 4.777995 0.272195 2.219292 12.030553 -0.864187 1.696394 18.874415 -28.849503 5.114721 2.979740 -56.485322 -5.158330 8.692752 8.703258 -27.035680 7.597446 -5.984180 -2.863042 -6.861308 29.274390 1.053299 5.026811 54.511927 7.149133 11.776083 -12.001732 17.103602 -6.805657 4.050624 2.884982 -8.115018 
-0.635206 0.201705 1.175631 -96.324776 -0.605197 77.969199 3.614610 -3.109571 -25.189460 -7.144858 8.046484 59.800262 0.903019 6.383625 3.607719 0.000000 -0.000000 0.000000 0.657065 -5.005408 10.678403 2.416394 3.186531 16.804844 -1.212261 -2.534806 -14.965527 0.000000 -0.000000 0.000000 1.044884 6.141218 17.548629 2.093730 -1.501239 0.030050 -0.576010 1.222157 4.796608 0.344058 2.189776 12.365124 -0.759368 1.487711 18.893637 -28.790277 5.361760 3.208999 -56.868228 -4.696048 8.355150 8.784902 -26.044318 7.394201 -5.878907 -2.622863 -7.577390 29.077813 1.064979 5.051642 54.789723 7.408837 11.740163 -11.976905 17.192594 -6.583117 4.046841 2.912617 -8.319863 
-0.648491 0.202511 1.174180 -96.624978 -1.016058 77.487479 4.142065 -2.700184 -26.320662 -8.055070 8.370670 56.742249 -0.208507 5.532089 4.332628 0.000000 -0.000000 0.000000 0.153313 -5.084466 12.108871 2.130665 3.806504 16.680400 -1.591676 -2.173384 -15.760685 0.000000 -0.000000 0.000000 0.966398 6.607495 17.850639 1.912584 -1.598560 0.243264 -0.713031 1.307114 4.658707 0.373101 2.285340 12.948466 -0.676359 1.306451 18.612569 -28.860195 5.242120 3.338614 -57.033161 -4.067971 8.185160 9.047152 -25.050935 7.323183 -6.480686 -2.695711 -7.453288 28.809979 1.068054 5.265903 55.003587 7.503338 11.534833 -12.120126 17.828142 -6.465705 4.119000 3.123397 -8.683728 
-0.661986 0.202988 1.171153 -96.707573 -1.357348 77.113443 4.375759 -2.677393 -26.549333 -8.725353 7.988363 51.781923 -1.479034 5.036659 6.202149 0.000000 -0.000000 0.000000 -0.282124 -4.954229 13.228338 2.099890 3.986186 17.362258 -1.756690 -2.406320 -17.672720 0.000000 -0.000000 0.000000 0.758068 6.690376 17.820496 1.788240 -1.693605 0.643788 -0.780059 1.364893 4.627911 0.362776 2.620871 13.163760 -0.784306 1.083448 18.534642 -28.848032 5.200645 3.648269 -57.257489 -3.717629 8.252740 8.858695 -23.964708 7.218163 -6.229854 -2.029048 -8.330243 28.645158 1.396826 5.533327 54.752152 7.784655 11.570762 -12.003638 18.405790 -6.513972 3.949184 3.073656 -9.194729 
-0.677235 0.202842 1.167560 -96.990195 -1.577195 76.656029 4.399410 -2.463164 -25.384983 -8.489044 7.387884 44.948024 -3.227605 5.275915 9.731762 0.000000 -0.000000 0.000000 -0.535403 -4.775531 14.281555 2.001706 4.548053 18.296912 -2.088907 -2.812063 -19.693756 0.000000 -0.000000 0.000000 0.648855 6.843362 17.611535 1.707686 -1.661369 1.351269 -0.839691 1.409204 4.562206 0.627577 2.883268 13.541955 -0.845519 0.714866 18.163612 -28.820074 5.198711 3.206522 -57.502797 -3.228630 8.583542 8.881061 -22.854210 7.358269 -6.545318 -2.058012 -8.169739 28.715263 1.378994 5.413774 54.364807 8.021127 11.653442 -12.098212 19.158424 -6.752740 3.777600 3.019682 -9.443116 
-0.692890 0.202329 1.162220 -97.088105 -1.530728 76.607859 4.101043 -1.937619 -23.832896 -7.136871 6.452200 37.011890 -4.714136 6.251696 15.273196 0.000000 -0.000000 0.000000 -0.379959 -4.465196 14.595826 1.893058 4.492660 19.832454 -2.605854 -3.350877 -21.375697 0.000000 -0.000000 0.000000 0.674576 6.593362 16.941974 1.711722 -1.624522 2.094735 -0.922990 1.414233 4.148532 0.854185 3.158866 14.275159 -0.912764 0.640776 17.550094 -29.066923 5.489705 3.401190 -57.414595 -2.856845 8.726194 8.896190 -22.800983 6.908481 -6.721465 -1.697391 -7.774229 28.417103 1.462148 5.500945 54.220226 8.125555 11.824445 -12.270100 19.868257 -6.988122 3.829981 3.331498 -9.194481 
-0.710235 0.201921 1.154637 -97.079962 -1.526927 76.701210 3.490609 -1.332432 -21.982207 -4.504718 7.479922 29.288356 -4.589260 8.024678 20.831812 0.000000 -0.000000 0.000000 0.203946 -3.605510 15.187470 1.490689 5.362718 21.337954 -3.579241 -4.254028 -23.935750 0.000000 -0.000000 0.000000 0.375392 6.348834 15.839695 1.846786 -1.574918 2.640803 -0.944026 1.197710 4.158768 1.172161 3.656036 14.697993 -1.480438 0.680600 17.772379 -28.958122 5.989224 3.506140 -57.563660 -2.674768 9.031446 8.979241 -22.771460 6.400689 -7.302818 -1.529729 -7.688341 28.284214 1.227620 5.433686 53.997500 8.398347 12.396241 -12.588360 20.785337 -7.621681 4.160792 3.196822 -9.166423 
-0.729661 0.200732 1.146640 -97.226953 -1.178188 76.088564 3.033499 -0.470012 -18.987173 -1.747787 9.819301 22.411474 -3.401638 10.704012 23.679782 0.000000 -0.000000 0.000000 0.034885 -4.269324 15.718367 1.537638 4.306897 23.891858 -3.543171 -4.197831 -25.012892 0.000000 -0.000000 0.000000 0.794301 5.978952 15.688823 1.766585 -1.615157 2.956815 -0.994848 1.179623 3.953977 1.138317 3.695255 15.199324 -1.547156 1.044833 17.786785 -29.033441 6.246560 3.531742 -57.611505 -2.319292 8.722436 9.010863 -22.714027 6.112727 -7.789084 -1.473837 -7.224095 28.222789 1.066527 5.103014 53.740726 8.540501 12.254919 -12.791328 21.070770 -8.074007 4.464846 3.367426 -8.465466 
-0.748856 0.198767 1.135694 -97.126028 -0.960800 76.578965 2.233234 0.407860 -17.478053 -1.164858 8.247052 16.748857 -1.991344 11.065068 24.221113 0.000000 -0.000000 0.000000 0.871356 -2.919506 15.973227 1.677198 5.680494 25.809592 -4.007285 -5.422496 -28.818946 0.000000 -0.000000 0.000000 0.614472 5.507784 14.229777 2.009851 -1.508893 3.163762 -1.012094 0.891537 4.038848 1.735443 4.164456 15.418180 -2.304713 0.744999 18.010406 -28.887089 7.021342 3.501195 -57.951691 -2.170542 8.889610 9.247103 -23.310688 5.752425 -7.015875 -1.416667 -7.047503 28.155029 0.580257 4.739028 53.549980 8.620893 12.597699 -13.046347 21.785499 -8.355294 4.155001 3.242055 -8.487886 
-0.772530 0.195210 1.124486 -97.327616 -1.054385 76.066793 1.922444 -0.582267 -14.268481 -1.676502 6.447734 11.800490 -3.082785 10.443050 25.366757 0.000000 -0.000000 0.000000 -0.262459 -3.589538 16.549541 1.939602 3.586146 29.108972 -3.736776 -5.352228 -31.920305 0.000000 -0.000000 0.000000 0.451101 5.282838 13.871910 2.040864 -1.493439 3.290558 -0.920813 0.774190 4.057614 2.025975 4.773173 15.899365 -2.761671 0.659969 17.979103 -28.554944 7.717240 3.441995 -58.447118 -1.511584 8.979837 9.564860 -24.495995 5.729635 -6.713445 -1.775606 -8.295683 28.216375 0.221941 4.579406 53.427170 8.501998 12.225479 -13.545119 22.479992 -8.541262 3.872889 3.468876 -8.793895 
